<?xml version="1.0" encoding="iso-8859-1"?>
<!-- Generator: Adobe Illustrator 19.0.0, SVG Export Plug-In . SVG Version: 6.00 Build 0)  -->
<svg version="1.1" id="Layer_1" xmlns="http://www.w3.org/2000/svg" xmlns:xlink="http://www.w3.org/1999/xlink" x="0px" y="0px"
	 viewBox="0 0 512.883 512.883" style="enable-background:new 0 0 512.883 512.883;" xml:space="preserve">
<path style="fill:#E8EDEE;" d="M0,106.372v386.648c0,10.593,8.828,19.421,19.421,19.421h104.166h264.828h104.166
	c10.593,0,19.421-8.828,19.421-19.421V106.372H0z"/>
<g>
	<path style="fill:#7383BF;" d="M247.172,371.2h17.655V247.614h-17.655V371.2z"/>
	<path style="fill:#7383BF;" d="M423.724,371.2h-17.655v-61.793H105.931V371.2H88.276v-79.448h335.448V371.2z"/>
	<path style="fill:#7383BF;" d="M141.241,168.166H97.103c-5.297,0-8.828-3.531-8.828-8.828s3.531-8.828,8.828-8.828h44.138
		c5.297,0,8.828,3.531,8.828,8.828S146.538,168.166,141.241,168.166"/>
</g>
<path style="fill:#42B05C;" d="M61.793,168.166h-8.828c-5.297,0-8.828-3.531-8.828-8.828s3.531-8.828,8.828-8.828h8.828
	c5.297,0,8.828,3.531,8.828,8.828S67.09,168.166,61.793,168.166"/>
<path style="fill:#ED7161;" d="M88.276,203.476h-35.31c-5.297,0-8.828-3.531-8.828-8.828s3.531-8.828,8.828-8.828h35.31
	c5.297,0,8.828,3.531,8.828,8.828S93.572,203.476,88.276,203.476"/>
<path style="fill:#ECBA16;" d="M141.241,203.476h-17.655c-5.297,0-8.828-3.531-8.828-8.828s3.531-8.828,8.828-8.828h17.655
	c5.297,0,8.828,3.531,8.828,8.828S146.538,203.476,141.241,203.476"/>
<g>
	<path style="fill:#ED7161;" d="M52.966,459.476h88.276V371.2H52.966V459.476z"/>
	<path style="fill:#ED7161;" d="M211.862,459.476h88.276V371.2h-88.276V459.476z"/>
	<path style="fill:#ED7161;" d="M211.862,256.441h88.276v-88.276h-88.276V256.441z"/>
	<path style="fill:#ED7161;" d="M370.759,459.476h88.276V371.2h-88.276V459.476z"/>
</g>
<path style="fill:#42B05C;" d="M459.034,168.166h-88.276c-5.297,0-8.828-3.531-8.828-8.828s3.531-8.828,8.828-8.828h88.276
	c5.297,0,8.828,3.531,8.828,8.828S464.331,168.166,459.034,168.166"/>
<path style="fill:#ECBA16;" d="M459.034,203.476h-35.31c-5.297,0-8.828-3.531-8.828-8.828s3.531-8.828,8.828-8.828h35.31
	c5.297,0,8.828,3.531,8.828,8.828S464.331,203.476,459.034,203.476"/>
<path style="fill:#ED7161;" d="M388.414,203.476h-17.655c-5.297,0-8.828-3.531-8.828-8.828s3.531-8.828,8.828-8.828h17.655
	c5.297,0,8.828,3.531,8.828,8.828S393.71,203.476,388.414,203.476"/>
<path style="fill:#546A79;" d="M512,106.372H0V17.214C0,7.503,7.062,0.441,16.772,0.441H496.11c8.828,0,16.772,7.062,16.772,16.772
	v89.159H512z"/>
<path style="fill:#ED7161;" d="M79.448,53.407c0,15.007-11.476,26.483-26.483,26.483S26.483,68.414,26.483,53.407
	s11.476-26.483,26.483-26.483S79.448,38.4,79.448,53.407"/>
<path style="fill:#ECBA16;" d="M158.897,53.407c0,15.007-11.476,26.483-26.483,26.483c-15.007,0-26.483-11.476-26.483-26.483
	s11.476-26.483,26.483-26.483C147.421,26.924,158.897,38.4,158.897,53.407"/>
<path style="fill:#42B05C;" d="M238.345,53.407c0,15.007-11.476,26.483-26.483,26.483c-15.007,0-26.483-11.476-26.483-26.483
	s11.476-26.483,26.483-26.483C226.869,26.924,238.345,38.4,238.345,53.407"/>
<g>
</g>
<g>
</g>
<g>
</g>
<g>
</g>
<g>
</g>
<g>
</g>
<g>
</g>
<g>
</g>
<g>
</g>
<g>
</g>
<g>
</g>
<g>
</g>
<g>
</g>
<g>
</g>
<g>
</g>
</svg>
